<svg height="396.885" viewBox="0 0 1173.4061 396.885" width="1173.4061" xmlns="http://www.w3.org/2000/svg">
<defs>
<marker id="arrow-right-black" markerHeight="6" markerWidth="6" orient="auto" refX="9" refY="5" viewBox="0 0 10 10">
<path d="M 0 0 L 10 5 L 0 10 z" fill="black" fill-opacity="1"/>
</marker>
</defs>
<g transform="translate(50, 50)">
<g>
<g>
<g data-layer="content">
<g id="component-group">
<rect fill="rgb(255, 248.00002, 240.00002)" fill-opacity="1" height="294.885" rx="0" stroke="black" stroke-linecap="butt" stroke-linejoin="miter" stroke-opacity="1" stroke-width="2" width="305.11493" x="78.121" y="1"/>
<g transform="translate(333.23593, 11)">
<path d="M 8 0 L 40 0 L 40 30 L 8 30 L 8 24 L 12 24 L 12 18 L 8 18 L 8 12 L 12 12
            L 12 6 L 8 6 L 8 0 Z M 0 6 L 0 12 L 12 12 L 12 6 L 0 6 Z M 0 18 L 0 24 L 12 24 L 12 18 L 0 18 Z" fill="rgb(255, 248.00002, 240.00002)" fill-opacity="1" fill-rule="evenodd" stroke="black" stroke-linecap="butt" stroke-linejoin="miter" stroke-opacity="1" stroke-width="2"/>
</g>
</g>
<rect fill="rgb(224.00002, 240.00002, 224.00002)" fill-opacity="1" height="92.942505" rx="5" stroke="black" stroke-linecap="butt" stroke-linejoin="miter" stroke-opacity="1" stroke-width="2" width="178.67294" x="893.73315" y="1"/>
<g id="actor-group">
<circle cx="21.0605" cy="6" fill="white" fill-opacity="1" r="8" stroke="black" stroke-linecap="butt" stroke-linejoin="miter" stroke-opacity="1" stroke-width="2"/>
<line stroke="black" stroke-linecap="butt" stroke-linejoin="miter" stroke-opacity="1" stroke-width="2" x1="21.0605" x2="21.0605" y1="14" y2="34"/>
<line stroke="black" stroke-linecap="butt" stroke-linejoin="miter" stroke-opacity="1" stroke-width="2" x1="21.0605" x2="9.060499" y1="20" y2="28"/>
<line stroke="black" stroke-linecap="butt" stroke-linejoin="miter" stroke-opacity="1" stroke-width="2" x1="21.0605" x2="33.0605" y1="20" y2="28"/>
<line stroke="black" stroke-linecap="butt" stroke-linejoin="miter" stroke-opacity="1" stroke-width="2" x1="21.0605" x2="11.060499" y1="34" y2="52"/>
<line stroke="black" stroke-linecap="butt" stroke-linejoin="miter" stroke-opacity="1" stroke-width="2" x1="21.0605" x2="31.0605" y1="34" y2="52"/>
</g>
<g id="component-group">
<rect fill="rgb(240.00002, 245.00002, 255)" fill-opacity="1" height="164.9425" rx="0" stroke="black" stroke-linecap="butt" stroke-linejoin="miter" stroke-opacity="1" stroke-width="2" width="436.4972" x="420.2359" y="1"/>
<g transform="translate(806.7331, 11)">
<path d="M 8 0 L 40 0 L 40 30 L 8 30 L 8 24 L 12 24 L 12 18 L 8 18 L 8 12 L 12 12
            L 12 6 L 8 6 L 8 0 Z M 0 6 L 0 12 L 12 12 L 12 6 L 0 6 Z M 0 18 L 0 24 L 12 24 L 12 18 L 0 18 Z" fill="rgb(240.00002, 245.00002, 255)" fill-opacity="1" fill-rule="evenodd" stroke="black" stroke-linecap="butt" stroke-linejoin="miter" stroke-opacity="1" stroke-width="2"/>
</g>
</g>
</g>
<g data-layer="arrow">
<path d="M 42.121 54.017803 L 77.120995 71.5449" fill="none" marker-end="url(#arrow-right-black)" stroke="black" stroke-linecap="butt" stroke-linejoin="miter" stroke-opacity="1" stroke-width="1"/>
<path d="M 384.23593 123.97788 L 419.2359 118.40172" fill="none" marker-end="url(#arrow-right-black)" stroke="black" stroke-linecap="butt" stroke-linejoin="miter" stroke-opacity="1" stroke-width="1"/>
<path d="M 857.7331 60.565594 L 892.73315 56.909016" fill="none" marker-end="url(#arrow-right-black)" stroke="black" stroke-linecap="butt" stroke-linejoin="miter" stroke-opacity="1" stroke-width="1"/>
</g>
<g data-layer="text">
<text dominant-baseline="central" font-family="Arial" font-size="15" text-anchor="middle" x="230.67847" y="-10.471251">

<tspan dy="22.942501" x="230.67847">frontend</tspan>
</text>
<text dominant-baseline="central" font-family="Arial" font-size="15" text-anchor="middle" x="983.06964" y="24.528751">

<tspan dy="22.942501" x="983.06964">PostgreSQL</tspan>
</text>
<text dominant-baseline="central" font-family="Arial" font-size="15" text-anchor="middle" x="21.0605" y="51.52875">

<tspan dy="22.942501" x="21.0605">User</tspan>
</text>
<text dominant-baseline="central" font-family="Arial" font-size="15" text-anchor="middle" x="638.4845" y="-10.471251">

<tspan dy="22.942501" x="638.4845">backend</tspan>
</text>
</g>
</g>
<g transform="translate(479.2359, 35)">
<g data-layer="content">
<rect fill="rgb(230.00002, 243.00002, 255)" fill-opacity="1" height="92.942505" rx="5" stroke="black" stroke-linecap="butt" stroke-linejoin="miter" stroke-opacity="1" stroke-width="2" width="111.03972" x="204.45746" y="1"/>
<rect fill="rgb(230.00002, 243.00002, 255)" fill-opacity="1" height="92.942505" rx="5" stroke="black" stroke-linecap="butt" stroke-linejoin="miter" stroke-opacity="1" stroke-width="2" width="166.45747" x="1" y="1"/>
</g>
<g data-layer="arrow">
<path d="M 168.45747 47.471252 L 203.45746 47.471252" fill="none" marker-end="url(#arrow-right-black)" stroke="black" stroke-linecap="butt" stroke-linejoin="miter" stroke-opacity="1" stroke-width="1"/>
</g>
<g data-layer="text">
<text dominant-baseline="central" font-family="Arial" font-size="15" text-anchor="middle" x="259.97733" y="24.528751">

<tspan dy="22.942501" x="259.97733">Auth</tspan>
</text>
<text dominant-baseline="central" font-family="Arial" font-size="15" text-anchor="middle" x="84.22874" y="24.528751">

<tspan dy="22.942501" x="84.22874">API Server</tspan>
</text>
</g>
</g>
<g transform="translate(137.121, 35)">
<g data-layer="content">
<rect fill="rgb(230.00002, 243.00002, 255)" fill-opacity="1" height="92.942505" rx="5" stroke="black" stroke-linecap="butt" stroke-linejoin="miter" stroke-opacity="1" stroke-width="2" width="183.11493" x="1" y="1"/>
<rect fill="rgb(230.00002, 243.00002, 255)" fill-opacity="1" height="92.942505" rx="5" stroke="black" stroke-linecap="butt" stroke-linejoin="miter" stroke-opacity="1" stroke-width="2" width="151.69954" x="16.707695" y="130.9425"/>
</g>
<g data-layer="text">
<text dominant-baseline="central" font-family="Arial" font-size="15" text-anchor="middle" x="92.557465" y="24.528751">

<tspan dy="22.942501" x="92.557465">Admin Panel</tspan>
</text>
<text dominant-baseline="central" font-family="Arial" font-size="15" text-anchor="middle" x="92.557465" y="154.47125">

<tspan dy="22.942501" x="92.557465">Web App</tspan>
</text>
</g>
</g>
</g>
</g>
</svg>