<svg height="926.7025" viewBox="0 0 596.41125 926.7025" width="596.41125" xmlns="http://www.w3.org/2000/svg">
<defs>
<marker id="arrow-right-black" markerHeight="6" markerWidth="6" orient="auto" refX="9" refY="5" viewBox="0 0 10 10">
<path d="M 0 0 L 10 5 L 0 10 z" fill="black" fill-opacity="1"/>
</marker>
</defs>
<g transform="translate(49.99562, 50.00125)">
<g>
<g>
<g data-layer="content">
<g id="actor-group">
<circle cx="248.21" cy="5.998749" fill="white" fill-opacity="1" r="8" stroke="black" stroke-linecap="butt" stroke-linejoin="miter" stroke-opacity="1" stroke-width="2"/>
<line stroke="black" stroke-linecap="butt" stroke-linejoin="miter" stroke-opacity="1" stroke-width="2" x1="248.21" x2="248.21" y1="13.998749" y2="33.99875"/>
<line stroke="black" stroke-linecap="butt" stroke-linejoin="miter" stroke-opacity="1" stroke-width="2" x1="248.21" x2="236.21" y1="19.998749" y2="27.998749"/>
<line stroke="black" stroke-linecap="butt" stroke-linejoin="miter" stroke-opacity="1" stroke-width="2" x1="248.21" x2="260.21002" y1="19.998749" y2="27.998749"/>
<line stroke="black" stroke-linecap="butt" stroke-linejoin="miter" stroke-opacity="1" stroke-width="2" x1="248.21" x2="238.21" y1="33.99875" y2="51.99875"/>
<line stroke="black" stroke-linecap="butt" stroke-linejoin="miter" stroke-opacity="1" stroke-width="2" x1="248.21" x2="258.21002" y1="33.99875" y2="51.99875"/>
</g>
<rect fill="rgb(224.00002, 240.00002, 224.00002)" fill-opacity="1" height="92.942505" rx="5" stroke="black" stroke-linecap="butt" stroke-linejoin="miter" stroke-opacity="1" stroke-width="2" width="178.67294" x="158.87354" y="732.7587"/>
<g id="component-group">
<rect fill="rgb(240.00002, 245.00002, 255)" fill-opacity="1" height="313.8825" rx="0" stroke="black" stroke-linecap="butt" stroke-linejoin="miter" stroke-opacity="1" stroke-width="2" width="288.45746" x="103.98128" y="362.87875"/>
<g transform="translate(342.43872, 372.87875)">
<path d="M 8 0 L 40 0 L 40 30 L 8 30 L 8 24 L 12 24 L 12 18 L 8 18 L 8 12 L 12 12
            L 12 6 L 8 6 L 8 0 Z M 0 6 L 0 12 L 12 12 L 12 6 L 0 6 Z M 0 18 L 0 24 L 12 24 L 12 18 L 0 18 Z" fill="rgb(240.00002, 245.00002, 255)" fill-opacity="1" fill-rule="evenodd" stroke="black" stroke-linecap="butt" stroke-linejoin="miter" stroke-opacity="1" stroke-width="2"/>
</g>
</g>
<g id="component-group">
<rect fill="rgb(255, 248.00002, 240.00002)" fill-opacity="1" height="164.9425" rx="0" stroke="black" stroke-linecap="butt" stroke-linejoin="miter" stroke-opacity="1" stroke-width="2" width="494.41122" x="1.0043945" y="141.93875"/>
<g transform="translate(445.41562, 151.93875)">
<path d="M 8 0 L 40 0 L 40 30 L 8 30 L 8 24 L 12 24 L 12 18 L 8 18 L 8 12 L 12 12
            L 12 6 L 8 6 L 8 0 Z M 0 6 L 0 12 L 12 12 L 12 6 L 0 6 Z M 0 18 L 0 24 L 12 24 L 12 18 L 0 18 Z" fill="rgb(255, 248.00002, 240.00002)" fill-opacity="1" fill-rule="evenodd" stroke="black" stroke-linecap="butt" stroke-linejoin="miter" stroke-opacity="1" stroke-width="2"/>
</g>
</g>
</g>
<g data-layer="arrow">
<path d="M 248.21 86.94125 L 248.21 140.93875" fill="none" marker-end="url(#arrow-right-black)" stroke="black" stroke-linecap="butt" stroke-linejoin="miter" stroke-opacity="1" stroke-width="1"/>
<path d="M 248.21 307.88126 L 248.21 361.87875" fill="none" marker-end="url(#arrow-right-black)" stroke="black" stroke-linecap="butt" stroke-linejoin="miter" stroke-opacity="1" stroke-width="1"/>
<path d="M 248.21 677.7612 L 248.21 731.7587" fill="none" marker-end="url(#arrow-right-black)" stroke="black" stroke-linecap="butt" stroke-linejoin="miter" stroke-opacity="1" stroke-width="1"/>
</g>
<g data-layer="text">
<text dominant-baseline="central" font-family="Arial" font-size="15" text-anchor="middle" x="248.21" y="51.5275">

<tspan dy="22.942501" x="248.21">User</tspan>
</text>
<text dominant-baseline="central" font-family="Arial" font-size="15" text-anchor="middle" x="248.21" y="756.2875">

<tspan dy="22.942501" x="248.21">PostgreSQL</tspan>
</text>
<text dominant-baseline="central" font-family="Arial" font-size="15" text-anchor="middle" x="248.21" y="351.4075">

<tspan dy="22.942501" x="248.21">backend</tspan>
</text>
<text dominant-baseline="central" font-family="Arial" font-size="15" text-anchor="middle" x="248.21" y="130.4675">

<tspan dy="22.942501" x="248.21">frontend</tspan>
</text>
</g>
</g>
<g transform="translate(162.98126, 396.87875)">
<g data-layer="content">
<rect fill="rgb(230.00002, 243.00002, 255)" fill-opacity="1" height="92.942505" rx="5" stroke="black" stroke-linecap="butt" stroke-linejoin="miter" stroke-opacity="1" stroke-width="2" width="166.45747" x="1.0002594" y="0.9987488"/>
<rect fill="rgb(230.00002, 243.00002, 255)" fill-opacity="1" height="92.942505" rx="5" stroke="black" stroke-linecap="butt" stroke-linejoin="miter" stroke-opacity="1" stroke-width="2" width="111.03972" x="28.709137" y="149.93875"/>
</g>
<g data-layer="arrow">
<path d="M 84.229 94.94125 L 84.229 148.93875" fill="none" marker-end="url(#arrow-right-black)" stroke="black" stroke-linecap="butt" stroke-linejoin="miter" stroke-opacity="1" stroke-width="1"/>
</g>
<g data-layer="text">
<text dominant-baseline="central" font-family="Arial" font-size="15" text-anchor="middle" x="84.229" y="24.5275">

<tspan dy="22.942501" x="84.229">API Server</tspan>
</text>
<text dominant-baseline="central" font-family="Arial" font-size="15" text-anchor="middle" x="84.229" y="173.4675">

<tspan dy="22.942501" x="84.229">Auth</tspan>
</text>
</g>
</g>
<g transform="translate(60.004395, 175.93875)">
<g data-layer="content">
<rect fill="rgb(230.00002, 243.00002, 255)" fill-opacity="1" height="92.942505" rx="5" stroke="black" stroke-linecap="butt" stroke-linejoin="miter" stroke-opacity="1" stroke-width="2" width="183.11493" x="0.99853516" y="0.9987488"/>
<rect fill="rgb(230.00002, 243.00002, 255)" fill-opacity="1" height="92.942505" rx="5" stroke="black" stroke-linecap="butt" stroke-linejoin="miter" stroke-opacity="1" stroke-width="2" width="151.69954" x="221.71024" y="0.9987488"/>
</g>
<g data-layer="text">
<text dominant-baseline="central" font-family="Arial" font-size="15" text-anchor="middle" x="92.556" y="24.5275">

<tspan dy="22.942501" x="92.556">Admin Panel</tspan>
</text>
<text dominant-baseline="central" font-family="Arial" font-size="15" text-anchor="middle" x="297.56" y="24.5275">

<tspan dy="22.942501" x="297.56">Web App</tspan>
</text>
</g>
</g>
</g>
</g>
</svg>